<?xml version="1.0" encoding="utf-8"?><svg version="1.1" xmlns="http://www.w3.org/2000/svg" xmlns:xlink="http://www.w3.org/1999/xlink" x="0px" y="0px" viewBox="0 0 199 177" enable-background="new 0 0 199 177" xml:space="preserve"><g><circle display="inline" fill="#729FA7" cx="99.8" cy="25.8" r="25.8"/><path display="inline" fill="#729FA7" d="M147.7,77.8L123.4,105l1.6,8.7l-6.2,6.9L98,102l6.3-6.9l8.9,0.6l24.4-27.5 c-1.6-0.5-3.3-1.1-5.1-1.1H67c-9.5,0-17,8.4-17,17.9v74.7c0,2.2,0.4,4.4,1.2,6.3l21.7-24.1l-1.6-8.7l6.2-6.9l5.2,4.7l8.8-9.8 l10.4,9.4l-8.9,9.8l5.2,4.7l-6.2,6.9l-8.9-0.6l-22.1,24.7C63,176.5,65,177,67,177h65.4c9.5,0,16.6-7.9,16.6-17.4V84.9 C149,82.3,148.7,79.9,147.7,77.8z"/></g></svg>
