<?xml version="1.0" encoding="utf-8"?><svg version="1.1" xmlns="http://www.w3.org/2000/svg" xmlns:xlink="http://www.w3.org/1999/xlink" x="0px" y="0px" viewBox="0 0 199 177" enable-background="new 0 0 199 177" xml:space="preserve"><path fill="#729FA7" d="M99.5,10.2c-43.3,0-78.4,35.1-78.4,78.4c0,43.3,35.1,78.4,78.4,78.4 c43.3,0,78.4-35.1,78.4-78.4C177.9,45.3,142.8,10.2,99.5,10.2z M99.5,28.3c0,0,49.3-1.4,59.7,51.2c-3.5-0.3-19-0.1-35.4-8.3 c-8.6-4.1-14.7-7.6-23.9-7.6s-16,3-23.5,7.2C74.3,72,60.1,79,40,79.5C40.5,72.9,50.7,29.6,99.5,28.3z M87,147.7 C47,138.5,40.7,100,40.7,100s28,0,31.4,0c12.3,2,14.9,15.7,14.9,15.7S87,132.7,87,147.7z M99.7,103.5c-8.1,0-14.7-6.6-14.7-14.7 C85,80.6,91.6,74,99.7,74s14.7,6.6,14.7,14.7C114.4,96.9,107.8,103.5,99.7,103.5z M112,147.7c0-15,0-32,0-32s2.7-13.7,15.1-15.7 c3.5,0,31.4,0,31.4,0S152,138.5,112,147.7z"/></svg>
