<?xml version="1.0" encoding="utf-8"?><svg version="1.1" xmlns="http://www.w3.org/2000/svg" xmlns:xlink="http://www.w3.org/1999/xlink" x="0px" y="0px" viewBox="0 0 199 177" enable-background="new 0 0 199 177" xml:space="preserve"><g><path display="inline" fill-rule="evenodd" clip-rule="evenodd" fill="#729FA7" d="M65.6,62.6c-5.7-14.2-21.1-12-21.1-12 c-7.2,0.8-9.1,7.5-9.1,7.5S55,124.8,64.1,151c-0.4-19.1,14.3-25.8,16.6-30C82.5,117.3,71.2,76.8,65.6,62.6z M54.1,81.9 c-2.1,0.6-4.2-0.5-4.9-2.5l-4.7-14.8c-0.6-2,0.5-4.2,2.6-4.9c2.1-0.6,4.2,0.5,4.9,2.5l4.7,14.8C57.3,79.1,56.2,81.3,54.1,81.9z"/><path display="inline" fill-rule="evenodd" clip-rule="evenodd" fill="#729FA7" d="M146.1,117c-76.6,4.5-73.9,46.7-73.9,46.7 s81.8-9.2,86-9.2c4.1,0,7-12.5,7-12.5s5,3.1,5-8.5C170.2,121.9,156.6,117,146.1,117z M146.3,140.5c-4.6,0-8.3-3.7-8.3-8.2 c0-4.5,3.7-8.2,8.3-8.2c4.6,0,8.3,3.7,8.3,8.2C154.6,136.8,150.9,140.5,146.3,140.5z"/><path display="inline" fill-rule="evenodd" clip-rule="evenodd" fill="#729FA7" d="M37.7,4.1c0,0,23.2,1.7,20.1,26.3 C56.5,37,48.3,47,35.1,41.5c-11.1-6.1-4.3-26.8-3.2-31.2C33.6,3.5,37.7,4.1,37.7,4.1z"/><path display="inline" fill-rule="evenodd" clip-rule="evenodd" fill="#729FA7" d="M76.7,168.4l88.8-4.7v9.4H76.7V168.4z"/></g></svg>
