<?xml version="1.0" encoding="utf-8"?><svg version="1.1" xmlns="http://www.w3.org/2000/svg" xmlns:xlink="http://www.w3.org/1999/xlink" x="0px" y="0px" viewBox="0 0 199 177" enable-background="new 0 0 199 177" xml:space="preserve"><g id="design"><path display="inline" fill="#729FA7" d="M164.6,121.3c6,0,11.2,2.7,14.3,7.7H199c0,0-1.2-30.3-27.1-30.6 c-16.2-0.6-15.1-5-22.3-10c-7.3-5-24.8-19.4-39.9-19.4c-15.1,0-39.9,0-39.9,0l34.1,60h46.4C153.4,124,158.6,121.3,164.6,121.3z"/><circle display="inline" fill="#729FA7" cx="164.7" cy="138.7" r="11.8"/><g display="inline"><polygon fill="#729FA7" points="67.9,102.5 66.1,129.3 41.9,116.8 8.5,56.4 34.5,42.1"/><rect x="0.8" y="33.2" transform="matrix(0.8749 -0.4843 0.4843 0.8749 -16.755 12.402)" fill="#729FA7" width="29.7" height="10.9"/></g></g></svg>
