<?xml version="1.0" encoding="utf-8"?>
<!-- Generator: Adobe Illustrator 18.1.1, SVG Export Plug-In . SVG Version: 6.00 Build 0)  -->
<svg version="1.1" xmlns="http://www.w3.org/2000/svg" xmlns:xlink="http://www.w3.org/1999/xlink" x="0px" y="0px"
	 viewBox="0 0 600 354" enable-background="new 0 0 600 354" xml:space="preserve">
<g id="Calque_4" display="none">
</g>
<g id="Calque_2">
	<g id="connectivite">
		<path fill="#729FA7" d="M99.7,30.3c-32.3,0-61.6,13.3-82.5,34.7l16.4,16.4c0.3-0.3,0.5-0.5,0.8-0.8C51.8,63.1,75,53.5,99.7,53.5
			c24.7,0,47.9,9.6,65.4,27.1c0.1,0.1,0.3,0.3,0.4,0.4l16.4-16.4C160.9,43.4,131.8,30.3,99.7,30.3z"/>
		<path fill="#729FA7" d="M99.2,70.6c-21.2,0-40.5,8.5-54.5,22.3l16.4,16.4c9.8-9.6,23.3-15.6,38.1-15.6c14.8,0,28.2,5.9,38.1,15.6
			l16.4-16.4C139.7,79.1,120.4,70.6,99.2,70.6z"/>
		<path fill="#729FA7" d="M99.8,146.9l25.9-25.9c-6.7-6.6-15.9-10.7-26.1-10.7c-10.1,0-19.2,4-25.9,10.5L99.8,146.9z"/>
	</g>
	<path id="plaisir" fill="#729FA7" d="M499.5,189.2c-43.3,0-78.4,35.1-78.4,78.4c0,43.3,35.1,78.4,78.4,78.4
		c43.3,0,78.4-35.1,78.4-78.4C577.9,224.3,542.8,189.2,499.5,189.2z M499.5,207.3c0,0,49.3-1.4,59.7,51.2c-3.5-0.3-19-0.1-35.4-8.3
		c-8.6-4.1-14.7-7.6-23.9-7.6s-16,3-23.5,7.2c-2,1.2-16.2,8.1-36.4,8.7C440.5,251.9,450.7,208.6,499.5,207.3z M487,326.7
		c-40-9.2-46.3-47.7-46.3-47.7s28,0,31.4,0c12.3,2,14.9,15.7,14.9,15.7S487,311.7,487,326.7z M499.7,282.5
		c-8.1,0-14.7-6.6-14.7-14.7c0-8.1,6.6-14.7,14.7-14.7s14.7,6.6,14.7,14.7C514.4,275.9,507.8,282.5,499.7,282.5z M512,326.7
		c0-15,0-32,0-32s2.7-13.7,15.1-15.7c3.5,0,31.4,0,31.4,0S552,317.5,512,326.7z"/>
	<g id="design">
		<path fill="#729FA7" d="M363.6,300.3c6,0,11.2,2.7,14.3,7.7H398c0,0-1.2-30.3-27.1-30.6c-16.2-0.6-15.1-5-22.3-10
			c-7.3-5-24.8-19.4-39.9-19.4c-15.1,0-39.9,0-39.9,0l34.1,60h46.4C352.4,303,357.6,300.3,363.6,300.3z"/>
		<circle fill="#729FA7" cx="363.7" cy="317.7" r="11.8"/>
		<g>
			<polygon fill="#729FA7" points="266.9,281.5 265.1,308.3 240.9,295.8 207.5,235.4 233.5,221.1 			"/>
			
				<rect x="199.8" y="212.2" transform="matrix(0.8749 -0.4843 0.4843 0.8749 -78.551 131.1736)" fill="#729FA7" width="29.7" height="10.9"/>
		</g>
	</g>
	<g id="confort">
		<path fill-rule="evenodd" clip-rule="evenodd" fill="#729FA7" d="M65.6,240.5c-5.7-14.2-21.1-12-21.1-12c-7.2,0.8-9.1,7.5-9.1,7.5
			s19.6,66.7,28.7,92.9c-0.4-19.1,14.3-25.8,16.6-30C82.5,295.2,71.2,254.8,65.6,240.5z M54.1,259.8c-2.1,0.6-4.2-0.5-4.9-2.5
			l-4.7-14.8c-0.6-2,0.5-4.2,2.6-4.9c2.1-0.6,4.2,0.5,4.9,2.5l4.7,14.8C57.3,257,56.2,259.2,54.1,259.8z"/>
		<path fill-rule="evenodd" clip-rule="evenodd" fill="#729FA7" d="M146.1,295c-76.6,4.5-73.9,46.7-73.9,46.7s81.8-9.2,86-9.2
			c4.1,0,7-12.5,7-12.5s5,3.1,5-8.5C170.2,299.8,156.6,295,146.1,295z M146.3,318.4c-4.6,0-8.3-3.7-8.3-8.2c0-4.5,3.7-8.2,8.3-8.2
			c4.6,0,8.3,3.7,8.3,8.2C154.6,314.8,150.9,318.4,146.3,318.4z"/>
		<path fill-rule="evenodd" clip-rule="evenodd" fill="#729FA7" d="M37.7,182.1c0,0,23.2,1.7,20.1,26.3c-1.3,6.6-9.4,16.6-22.6,11.1
			c-11.1-6.1-4.3-26.8-3.2-31.2C33.6,181.5,37.7,182.1,37.7,182.1z"/>
		<path fill-rule="evenodd" clip-rule="evenodd" fill="#729FA7" d="M76.7,346.3l88.8-4.7v9.4H76.7V346.3z"/>
	</g>
	<g id="securite">
		<circle fill="#729FA7" cx="499.8" cy="25.8" r="25.8"/>
		<path fill="#729FA7" d="M547.7,77.8L523.4,105l1.6,8.7l-6.2,6.9L498,102l6.3-6.9l8.9,0.6l24.4-27.5c-1.6-0.5-3.3-1.1-5.1-1.1H467
			c-9.5,0-17,8.4-17,17.9v74.7c0,2.2,0.4,4.4,1.2,6.3l21.7-24.1l-1.6-8.7l6.2-6.9l5.2,4.7l8.8-9.8l10.4,9.4l-8.9,9.8l5.2,4.7
			l-6.2,6.9l-8.9-0.6l-22.1,24.7c1.8,0.7,3.8,1.2,5.9,1.2h65.4c9.5,0,16.6-7.9,16.6-17.4V84.9C549,82.3,548.7,79.9,547.7,77.8z"/>
	</g>
	<g id="finition">
		<g>
			<path fill="#729FA7" d="M375.8,145.8c1.4,3.1-2.2,6.2-4.9,6.2h-54.2c-5.6,0-7.3-3.1-9-6.2l-4.1-13.8h68.2L375.8,145.8z"/>
			<path fill="#729FA7" d="M362,36.6v17.9c0,2.7-2.3,4.5-5.1,4.5h-37.8c-2.7,0-6.2-1.8-6.2-4.5V36.5c-4,0.9-10,6-10,12.2V125h69
				V48.7C372,42.7,367,37.7,362,36.6z"/>
			<path fill="#729FA7" d="M356,51.6c0,0.9-0.5,2.4-1.4,2.4H323c-0.9,0-1-1.5-1-2.4V26.5c0-0.9,0.1-1.5,1-1.5h31.6
				c0.9,0,1.4,0.6,1.4,1.5V51.6z"/>
		</g>
		<g>
			<path fill="#729FA7" d="M223.3,145.8c-1.4,3.1,2.2,6.2,4.9,6.2h54.2c5.6,0,7.3-3.1,9-6.2l4.1-13.8h-68.2L223.3,145.8z"/>
			<path fill="#729FA7" d="M238,36.6v17.9c0,2.7,1.4,4.5,4.1,4.5h37.8c2.7,0,5.1-1.8,5.1-4.5V36.5c5,0.9,11,6,11,12.2V125h-68V48.7
				C228,42.7,230,37.7,238,36.6z"/>
			<path fill="#729FA7" d="M277,26.6c0-0.9-0.7-1.6-1.6-1.6h-30.7c-0.9,0-1.6,0.7-1.6,1.6v25.7c0,0.9,0.7,1.6,1.6,1.6h30.7
				c0.9,0,1.6-0.7,1.6-1.6V26.6z"/>
		</g>
	</g>
</g>
</svg>
